<svg xmlns="http://www.w3.org/2000/svg" fill="none" viewBox="0 0 283 64"><path fill="black" d="m141.04 16 124 36c.07.024.176.028.25.021.171-.015.346-.047.518-.096.434-.118.795-.34 1.06-.639.274-.312.466-.694.537-1.118a1.842 1.842 0 0 0-.006-1.05.987.987 0 0 0-.325-.618c-.12-.108-.269-.207-.334-.118L175.4 4.396c-.078-.048-.15-.096-.207-.118a.986.986 0 0 0-.815.082c-.27.18-.53.503-.678.927-.2.566-.187 1.288.092 1.834.13.25.26.5.374.566.123.075.44.24.44.24L263.398 16H141.04z"/><path fill="#000" d="M-.645 37.387c.03.696.166 1.32.394 1.852a6.3 6.3 0 0 0 1.163 1.85c.218.312.4.747.492 1.07-.23-.102-.483-.226-.675-.32a7.17 7.17 0 0 1-1.447-.933c-.37-.3-.71-.65-.993-1.056A4.894 4.894 0 0 1 .645 37.387zm30.834-2.317c.674.696 1.336 1.472 1.842 2.517.906 1.875 1.034 3.417.308 4.467L32.4 71.504c-.726 1.049-2.76 1.49-4.496.982-1.736-.507-3.166-1.966-3.166-3.231V37.387c0-1.563 1.555-2.708 3.196-2.708 1.641 0 3.014 1.145 3.014 2.708v31.867c0 .94.211 1.784.211 1.784.598-1.135.211-2.708-.598-3.231L25.645 37.387c-.809-.523-1.914-.523-2.723 0-.809.523-1.407 1.563-1.407 2.708v31.867c0 .523.211 1.044.423 1.044.211 0 .634-.52 1.266-1.044L32.4 40.095c.726-1.049 2.76-1.49 4.496-.982 1.736.508 3.166 1.966 3.166 3.231V73.212c0 1.563-1.555 2.708-3.196 2.708-1.641 0-3.014-1.145-3.014-2.708V42.345c0-.94-.211-1.784-.211-1.784-.598 1.135-.211 2.708.598 3.231l4.916 31.867c.809.523 1.914.523 2.723 0 .809-.523 1.407-1.563 1.407-2.708V41.084c0-.523-.211-1.044-.423-1.044-.211 0-.634.52-1.266 1.044L30.189 72.951z"/></svg>